<svg width="384" height="512" viewBox="0 0 384 512" fill="none" xmlns="http://www.w3.org/2000/svg">
<g clip-path="url(#clip0_326_14419)">
<path d="M203.1 4.36471C196.923 -1.45529 187.04 -1.45429 180.87 4.36401C74.52 104.5 0 234.1 0 312C0 437.9 79 512 192 512C305 512 384 437.95 384 312C384 233.9 309 104.2 203.1 4.36471ZM192 432C135.5 432 96 394.24 96 340.26C96 327.79 100.207 284.94 179.87 197.26C186.184 190.307 197.82 190.307 204.13 197.26C283.8 284.9 288 327.8 288 340.3C288 394.2 248.5 432 192 432Z" fill="#81B8F2"/>
</g>
<defs>
<clipPath id="clip0_326_14419">
<rect width="384" height="512" fill="white"/>
</clipPath>
</defs>
</svg>
