<svg width="79" height="79" viewBox="0 0 79 79" fill="none" xmlns="http://www.w3.org/2000/svg">
<path fill-rule="evenodd" clip-rule="evenodd" d="M79 72.4246V34.0415H48.8833V47.1648H61.8905C60.8025 53.9412 56.9617 57.809 50.3682 58.7681C47.6115 56.3215 43.729 53.845 38.1948 51.4763C37.4437 49.4808 36.3462 47.5223 34.9388 46.9434C34.4077 46.7249 33.8173 46.9816 33.6784 47.5324C33.56 48.0021 33.4995 48.6958 33.5757 49.668C32.6737 49.3444 31.7363 49.0235 30.7622 48.7059C29.6356 45.6493 29.0723 41.9123 29.0723 37.495C29.0723 30.3249 30.5398 24.8322 33.4748 21.0169C36.4097 17.1359 40.6121 15.1953 46.0818 15.1953C53.6193 15.1953 58.1885 18.7146 59.7893 25.7532H77.8994C77.1656 18.6488 74.1973 12.7615 68.9944 8.09103C62.9911 2.69701 55.4536 0 46.3819 0C36.3764 0 28.0718 3.02591 21.4681 9.07774C18.0806 12.1839 15.4477 15.7731 13.5692 19.8453C13.4712 19.8863 13.3769 19.9217 13.2871 19.9501C11.1782 20.6165 9.3941 20.937 8.0065 21.0621C6.06784 21.237 4.27375 20.3734 2.75058 19.1779C2.53425 19.008 2.32825 18.8251 2.12229 18.6423C1.83427 18.3865 1.54618 18.1307 1.23015 17.911C0.271763 17.2448 -0.610913 17.4356 0.559616 21.4476C0.886514 22.6327 1.84542 24.4154 2.64855 25.9084C2.9372 26.445 3.20579 26.9443 3.41761 27.3649C3.858 28.2393 4.38372 31.1979 4.90419 34.1269C5.26244 36.143 5.61827 38.1454 5.942 39.4441C6.46134 42.301 8.70851 47.9733 10.6118 52.4694C11.6108 54.8292 12.9278 57.029 14.5032 59.0381C14.4171 59.0164 14.3305 58.9948 14.2432 58.9733C6.27866 57.0165 7.35936 58.8173 9.57685 60.4877C10.3358 61.0594 10.9876 61.7647 11.6322 62.4622C11.6828 62.5169 11.7332 62.5715 11.7837 62.626C12.9123 63.8446 14.5654 64.896 15.9495 65.6209C17.0093 66.1761 18.244 66.2231 19.4201 65.9883C19.5073 65.9709 19.5934 65.9541 19.6784 65.9379C22.2196 68.8078 25.8308 71.9716 30.9172 75.0583C41.0172 81.1874 52.6076 78.9017 57.2368 76.6292C57.3908 76.5537 57.4493 76.3953 57.4116 76.2567C57.5082 76.2518 57.6004 76.2458 57.6882 76.2388C58.3039 76.1899 58.5398 75.5578 58.3339 74.9835C58.0405 74.165 57.8465 73.1972 57.629 72.1123C57.5898 71.9165 57.5497 71.7166 57.5082 71.5133C60.7953 69.9413 63.6235 67.6796 65.9928 64.7282V65.4189V65.9123V72.4246H79ZM12.0889 23.6206C12.5151 22.3191 13.0086 21.0607 13.5692 19.8453C13.9109 19.7023 14.2982 19.4915 14.6977 19.2739C15.453 18.8625 16.2524 18.4272 16.8717 18.3815C19.2463 18.2066 15.385 21.1907 13.4487 22.5575C12.9587 22.9034 12.5063 23.2589 12.0889 23.6206ZM10.0619 37.2201C12.1973 39.5847 15.3419 41.7504 18.597 43.5573C19.2652 42.349 18.1528 39.6155 17.2901 38.0356C20.31 37.0292 22.0276 40.3176 23.7844 43.6812C24.3662 44.795 24.9523 45.9171 25.5914 46.8942C26.6988 47.3449 27.7278 47.7277 28.6302 48.034C29.3598 48.2563 30.0703 48.4803 30.7622 48.7059C33.293 55.5722 38.6663 59.0053 46.8822 59.0053C48.119 59.0053 49.281 58.9263 50.3682 58.7681C55.6399 63.447 56.7941 68.0165 57.5082 71.5133C53.7619 73.3049 49.4194 74.2007 44.4809 74.2007C33.4748 74.2007 24.77 70.3525 18.3664 62.6562C12.83 55.9465 10.0618 47.4937 10.0618 37.2977C10.0618 37.2718 10.0618 37.246 10.0619 37.2201ZM10.0619 37.2201C8.71028 35.7235 7.76295 34.1472 7.44771 32.5319C7.41191 30.6564 8.32408 26.8837 12.0889 23.6206C10.7445 27.7257 10.0688 32.2589 10.0619 37.2201Z" fill="url(#paint0_linear_10734_10796)"/>
<defs>
<linearGradient id="paint0_linear_10734_10796" x1="12.5686" y1="66.6776" x2="109.477" y2="0.94385" gradientUnits="userSpaceOnUse">
<stop/>
<stop offset="1"/>
</linearGradient>
</defs>
</svg>
